<?xml version="1.0" encoding="utf-8" standalone="no"?>
<!DOCTYPE svg PUBLIC "-//W3C//DTD SVG 1.1//EN" "http://www.w3.org/Graphics/SVG/1.1/DTD/svg11.dtd">
<svg xmlns="http://www.w3.org/2000/svg" xmlns:xl="http://www.w3.org/1999/xlink" version="1.1" viewBox="23 23 209 181" width="209pt" height="181pt" xmlns:dc="http://purl.org/dc/elements/1.1/"><metadata> Produced by OmniGraffle 6.0.5 <dc:date>2014-04-19 17:42Z</dc:date></metadata><defs><marker orient="auto" overflow="visible" markerUnits="strokeWidth" id="FilledArrow_Marker" viewBox="-1 -4 10 8" markerWidth="10" markerHeight="8" color="black"><g><path d="M 8 0 L 0 -3 L 0 3 Z" fill="currentColor" stroke="currentColor" stroke-width="1"/></g></marker></defs><g stroke="none" stroke-opacity="1" stroke-dasharray="none" fill="none" fill-opacity="1"><title>Canvas 1</title><rect fill="white" width="559" height="783"/><g><title>Layer 1</title><rect x="56.692913" y="28.346457" width="85.03937" height="56.692913" fill="#6fc"/><path d="M 28.346457 28.346457 L 141.73228 28.346457 L 141.73228 85.03937 L 28.346457 85.03937 L 28.346457 85.03937 L 28.346457 85.03937" stroke="black" stroke-linecap="round" stroke-linejoin="miter" stroke-width="1"/><rect x="141.73228" y="28.346457" width="28.346457" height="56.692913" fill="#c6f"/><path d="M 226.77165 28.346457 L 141.73228 28.346457 L 141.73228 85.03937 L 226.77165 85.03937 L 226.77165 85.03937 L 226.77165 85.03937" stroke="black" stroke-linecap="round" stroke-linejoin="miter" stroke-width="1"/><rect x="99.2126" y="141.73228" width="42.519685" height="56.692913" fill="#6fc"/><path d="M 28.346457 141.73228 L 141.73228 141.73228 L 141.73228 198.4252 L 28.346457 198.4252 L 28.346457 198.4252 L 28.346457 198.4252" stroke="black" stroke-linecap="round" stroke-linejoin="miter" stroke-width="1"/><rect x="141.73228" y="141.73228" width="42.519685" height="56.692913" fill="#c6f"/><path d="M 226.77165 141.73228 L 141.73228 141.73228 L 141.73228 198.4252 L 226.77165 198.4252 L 226.77165 198.4252 L 226.77165 198.4252" stroke="black" stroke-linecap="round" stroke-linejoin="miter" stroke-width="1"/><line x1="141.73228" y1="91.8239" x2="141.73228" y2="124.062264" marker-end="url(#FilledArrow_Marker)" stroke="black" stroke-linecap="round" stroke-linejoin="round" stroke-width="1"/></g></g></svg>
